<svg width="120" height="120" viewBox="0 0 120 120" fill="currentColor" xmlns="http://www.w3.org/2000/svg">
<path fill-rule="evenodd" clip-rule="evenodd" d="M60 120C93.1371 120 120 93.1371 120 60C120 26.8629 93.1371 0 60 0C26.8629 0 0 26.8629 0 60C0 93.1371 26.8629 120 60 120ZM59.9215 46.9635L29.8497 59.8027C27.4087 60.765 26.1299 61.7064 26.0136 62.6267C25.8168 64.1822 27.7821 64.7947 30.4584 65.6288C30.8223 65.7422 31.1994 65.8597 31.5859 65.9843C34.2187 66.8326 37.7603 67.825 39.6015 67.8644C41.2715 67.9002 43.1356 67.2177 45.1936 65.8169C59.2387 56.4194 66.4888 51.6696 66.944 51.5671C67.265 51.4959 67.7102 51.4039 68.0117 51.6697C68.3131 51.9354 68.2825 52.4384 68.2515 52.5733C68.0571 53.3955 60.3501 60.4978 56.3565 64.178C55.1091 65.3276 54.224 66.1432 54.0433 66.3294C53.639 66.7455 53.227 67.1392 52.8311 67.5175C50.3851 69.8547 48.5507 71.6073 52.9326 74.4693L64.4403 82.1312C65.0439 82.5234 65.6205 82.9308 66.182 83.3276C68.3184 84.8372 70.2378 86.1935 72.609 85.9772C73.9879 85.8516 75.41 84.5674 76.133 80.7371C77.8412 71.6853 81.1991 52.0725 81.9751 43.9908C82.0431 43.2827 81.9577 42.3763 81.8889 41.9787C81.8201 41.581 81.6768 41.0141 81.1549 40.5946C80.5372 40.0977 79.5834 39.9929 79.1568 40.0004C77.2173 40.0342 74.2418 41.0597 59.9215 46.9635Z" />
</svg>
