<svg width="120" height="120" viewBox="0 0 120 120" fill="currentColor" xmlns="http://www.w3.org/2000/svg">
<path fill-rule="evenodd" clip-rule="evenodd" d="M60 120C93.1371 120 120 93.1371 120 60C120 26.8629 93.1371 0 60 0C26.8629 0 0 26.8629 0 60C0 93.1371 26.8629 120 60 120ZM84.7048 44C86.6416 44 87.0566 44.9671 86.6416 46.3487C85.9491 49.6846 79.7148 58.6988 78.2702 60.7875C78.0795 61.0633 77.9723 61.2183 77.9723 61.2237C77.2806 62.2829 77.0039 62.8355 77.9723 64.0789C78.3021 64.573 79.053 65.3074 79.9116 66.147C80.7338 66.9511 81.6548 67.8517 82.3991 68.7303C85.1659 71.8618 87.241 74.4868 87.8405 76.2829C88.3939 78.0789 87.4716 79 85.6271 79H79.1712C77.4585 79 76.5836 78.0274 74.7057 75.9397C73.904 75.0483 72.9194 73.9537 71.6087 72.6447C67.7812 68.9605 66.1673 68.5 65.1989 68.5C63.8616 68.5 63.4927 68.8684 63.4927 70.7105V76.5132C63.4927 78.0789 62.9855 79 58.8814 79C52.0566 79 44.5402 74.8553 39.191 67.2105C31.1673 56.0197 29 47.5461 29 45.8421C29 44.875 29.3689 44 31.2134 44H37.6693C39.3294 44 39.9288 44.7368 40.5744 46.4408C43.7101 55.6513 49.0593 63.6645 51.2266 63.6645C52.0566 63.6645 52.4255 63.2961 52.4255 61.2237V51.7368C52.2555 49.0759 51.3187 47.9114 50.6222 47.0454C50.1855 46.5025 49.8432 46.077 49.8432 45.4737C49.8432 44.7829 50.4888 44 51.5033 44H61.6482C63.0316 44 63.4927 44.6908 63.4927 46.3487V59.1513C63.4927 60.5329 64.0922 60.9934 64.5072 60.9934C65.3372 60.9934 65.9828 60.5329 67.5046 59.0132C72.162 53.8553 75.436 45.8421 75.436 45.8421C75.8511 44.875 76.5889 44 78.249 44H84.7048Z" />
</svg>
