<svg width="120" height="120" viewBox="0 0 120 120" fill="currentColor" xmlns="http://www.w3.org/2000/svg">
<path fill-rule="evenodd" clip-rule="evenodd" d="M60.4916 82.9245H60.4823C56.4163 82.923 52.4283 81.8311 48.9493 79.7672L48.1218 79.2762L39.5456 81.5252L41.8348 73.1662L41.2959 72.3092C39.0276 68.7026 37.8297 64.5339 37.8314 60.2539C37.8363 47.7642 48.0014 37.603 60.5004 37.603C66.5526 37.6053 72.242 39.9647 76.5202 44.2463C80.7984 48.528 83.1531 54.2193 83.1509 60.272C83.146 72.7627 72.9809 82.9245 60.4916 82.9245ZM72.9208 65.9592C72.2395 65.6183 68.8905 63.9708 68.2661 63.7437C67.6417 63.5163 67.1876 63.4027 66.7333 64.0845C66.2793 64.7662 64.9739 66.3001 64.5764 66.7545C64.179 67.209 63.7817 67.2659 63.1005 66.925C62.9892 66.8693 62.8376 66.8035 62.6503 66.7224C61.6913 66.3065 59.7994 65.4861 57.6225 63.5451C55.5976 61.7396 54.2303 59.5094 53.833 58.8275C53.4357 58.1458 53.7908 57.7773 54.1317 57.4377C54.3351 57.2353 54.5685 56.9514 54.8021 56.6671L54.805 56.6635C54.9224 56.5204 55.0399 56.3774 55.1535 56.2448C55.4431 55.9068 55.5685 55.6507 55.7391 55.3024L55.7494 55.2814C55.7764 55.2263 55.8045 55.1689 55.8347 55.1085C56.0618 54.6541 55.9482 54.2563 55.7779 53.9155C55.664 53.6874 55.0166 52.1119 54.4305 50.6856C54.1405 49.9798 53.8655 49.3106 53.6776 48.8593C53.1894 47.6867 52.6943 47.6898 52.2972 47.692C52.2447 47.6924 52.1938 47.6927 52.1449 47.6902C51.748 47.6705 51.2934 47.6663 50.8393 47.6663C50.3853 47.6663 49.6472 47.8367 49.0229 48.5186C48.9828 48.5623 48.9381 48.6099 48.8895 48.6617C48.18 49.4185 46.6387 51.0626 46.6387 54.1995C46.6387 57.5339 49.0542 60.7558 49.4147 61.2366L49.4202 61.2439C49.4421 61.2732 49.481 61.3289 49.5365 61.4084L49.5401 61.4135C50.3569 62.5845 54.6721 68.7705 61.0569 71.5266C62.6823 72.2282 63.951 72.6472 64.9404 72.9611C66.5722 73.4792 68.0572 73.4062 69.231 73.231C70.5398 73.0354 73.2612 71.5835 73.829 69.9928C74.3966 68.402 74.3966 67.0388 74.2263 66.7546C74.0892 66.526 73.7683 66.3709 73.2931 66.1413C73.1779 66.0857 73.0537 66.0257 72.9208 65.9592Z" />
<path fill-rule="evenodd" clip-rule="evenodd" d="M120 60C120 93.1371 93.1371 120 60 120C26.8629 120 0 93.1371 0 60C0 26.8629 26.8629 0 60 0C93.1371 0 120 26.8629 120 60ZM79.7765 40.9927C74.6294 35.8413 67.7843 33.0029 60.4912 33C45.4645 33 33.2346 45.2252 33.2286 60.2521C33.2267 65.0554 34.482 69.7442 36.8677 73.8771L33 88L47.4523 84.2102C51.4343 86.3813 55.9175 87.5255 60.4804 87.5275H60.4916C75.5168 87.5275 87.7478 75.3007 87.7539 60.2738C87.7568 52.9916 84.9238 46.1441 79.7765 40.9927Z" />
</svg>
